<svg xmlns="http://www.w3.org/2000/svg" width="241" height="72" viewBox="0 0 241 72" fill="none">
  <path d="M66.7565 56.4026V21.7065H73.3873V39.8382L88.3192 21.7065H95.5763L83.9858 35.7626L96.0983 56.4026H88.6847L79.4434 40.5177L73.3873 47.7285V56.4026H66.7565ZM108.112 56.8727C100.698 56.8727 95.5816 51.6474 95.5816 44.1232C95.5816 36.5987 100.803 31.2688 108.268 31.2688C115.682 31.2688 120.903 36.5987 120.903 44.1232C120.903 51.543 115.578 56.8727 108.112 56.8727ZM108.164 51.5954C111.975 51.5954 114.325 48.8781 114.325 44.2799V44.0709C114.325 39.3681 112.028 36.5464 108.268 36.5464C104.457 36.5464 102.16 39.3681 102.16 44.0709V44.2799C102.16 48.8781 104.405 51.5954 108.164 51.5954ZM124.519 56.4026V31.7392H130.993V35.7105C132.246 32.8365 134.648 31.2167 138.146 31.2167C140.913 31.2167 143.68 32.523 144.933 36.3897C146.029 33.359 148.692 31.2167 152.973 31.2167C157.776 31.2167 160.752 34.9266 160.752 41.2492V56.4026H154.278V41.615C154.278 38.3231 152.869 36.7554 150.258 36.7554C147.439 36.7554 145.873 38.741 145.873 42.3465V56.4026H139.399V41.3536C139.399 38.3231 138.041 36.7554 135.378 36.7554C132.977 36.7554 130.993 38.5842 130.993 42.3465V56.4026H124.519ZM165.155 66.1216V31.7392H171.576V34.8743C173.247 32.5751 175.858 31.2167 179.095 31.2167C185.308 31.2167 190.059 36.0239 190.059 43.8618V43.9142C190.059 51.9088 185.36 56.925 179.042 56.925C175.91 56.925 173.299 55.5664 171.576 53.2674V66.1216H165.155ZM177.319 51.6474C180.818 51.6474 183.272 48.9827 183.272 44.1232V43.7574C183.272 38.8979 180.922 36.4941 177.319 36.4941C173.56 36.4941 171.263 39.5771 171.263 43.9662V44.4366C171.263 48.7737 173.456 51.6474 177.319 51.6474ZM200.867 57.0297C195.594 57.0297 192.305 54.1557 192.305 49.871C192.305 44.332 196.429 43.078 201.963 41.8763C206.506 40.9878 208.803 40.7788 208.96 39.4204V39.159C208.96 37.696 207.654 36.3374 204.313 36.3374C200.971 36.3374 199.405 38.0094 199.249 40.2042V40.57H192.827C193.036 34.9787 197.421 31.2688 204.365 31.2688C211.048 31.2688 215.12 34.1951 215.12 40.8834V56.4026H208.907V53.0584C207.341 55.6187 204.522 57.0297 200.867 57.0297ZM202.381 52.379C205.461 52.379 208.803 50.8115 208.96 46.2131V44.1232C207.55 44.9591 205.252 45.3772 203.216 45.8997C200.71 46.5268 198.831 47.3627 198.831 49.5575C198.831 51.2296 200.136 52.379 202.381 52.379ZM229.371 57.1341C224.307 57.1341 220.495 54.9918 218.198 51.9088L223.315 48.9827C224.672 50.9159 226.969 52.0655 229.527 52.0655C231.825 52.0655 233.235 51.0726 233.235 49.4529C233.235 47.7285 230.52 47.415 226.917 46.6312C222.636 45.743 218.355 44.0709 218.355 39.159C218.355 34.6653 222.636 31.1644 228.17 31.1644C233.079 31.1644 236.836 33.359 239.239 36.5987L234.122 39.3158C232.765 37.2779 230.676 36.233 228.222 36.233C225.925 36.233 224.463 37.2256 224.463 38.6889C224.463 40.361 225.873 40.6221 230.154 41.4582C234.592 42.2942 239.448 43.9662 239.448 48.9827C239.448 53.6332 235.167 57.1341 229.371 57.1341Z" fill="white"/>
  <path fill-rule="evenodd" clip-rule="evenodd" d="M9.56538 43.8664L25.6413 39.5553L17.6058 59.344C16.8128 59.7081 15.8449 59.6354 15.1109 59.0714L6.13584 52.1784C5.08148 51.3686 4.88022 49.8314 5.68928 48.7761L9.56538 43.8664ZM4.43707 36.2832L1.91218 35.2416C0.683222 34.7344 0.091992 33.3002 0.60061 32.0712L4.92921 21.6117C5.31088 20.69 6.21011 20.1257 7.15451 20.116C7.4694 20.1127 7.78972 20.1701 8.09669 20.2976L10.8974 21.459L23.4037 31.1971L4.43707 36.2832ZM17.3854 14.8704L38.7198 31.5688L29.3719 54.7569L32.4231 58.6226C33.2322 59.6781 34.7679 59.8812 35.8225 59.0714L44.7973 52.1784C45.8519 51.3686 46.0531 49.8316 45.2438 48.7761L38.7486 40.5484C38.6064 40.3476 38.5634 40.0951 38.6315 39.8584C38.7001 39.6213 38.8711 39.4298 39.0987 39.3355L49.0211 35.2416C50.2501 34.7344 50.8412 33.3007 50.3326 32.0712L46.0037 21.6117C45.622 20.69 44.7227 20.1258 43.7784 20.116C43.4635 20.1127 43.1432 20.1705 42.8362 20.2976L34.6552 23.6901C34.4055 23.7898 34.1247 23.759 33.9024 23.6082C33.6789 23.4573 33.5463 23.2074 33.5463 22.9385V12.6619C33.5463 11.3315 32.4516 10.2358 31.1224 10.2358H19.8096C18.4803 10.2358 17.3854 11.3315 17.3854 12.6619V14.8704Z" fill="white"/>
</svg>